{
    "asset" : {
        "generator" : "Khronos Blender glTF 2.0 I/O",
        "version" : "2.0"
    },
    "scene" : 0,
    "scenes" : [
        {
            "name" : "Scene",
            "nodes" : [
                14
            ]
        }
    ],
    "nodes" : [
        {
            "name" : "Bone.002",
            "rotation" : [
                0.03685224428772926,
                -0.004440441261976957,
                -0.004351234063506126,
                0.9993014335632324
            ],
            "scale" : [
                1,
                1,
                0.9999999403953552
            ],
            "translation" : [
                5.551115123125783e-17,
                1.8481111526489258,
                -7.45931094670027e-17
            ]
        },
        {
            "children" : [
                0
            ],
            "name" : "Bone.001",
            "rotation" : [
                0.001900778035633266,
                -0.7071042656898499,
                0.001900777337141335,
                0.7071042060852051
            ],
            "scale" : [
                1,
                0.9999998211860657,
                0.9999999403953552
            ],
            "translation" : [
                0,
                1,
                0
            ]
        },
        {
            "name" : "Bone.007",
            "rotation" : [
                -0.09935343265533447,
                -0.06811938434839249,
                0.5613611936569214,
                0.8187565207481384
            ],
            "scale" : [
                0.9999998807907104,
                0.9999998807907104,
                1
            ],
            "translation" : [
                4.046463164542047e-10,
                0.7329146862030029,
                -1.82469506171401e-08
            ]
        },
        {
            "children" : [
                2
            ],
            "name" : "Bone.006",
            "rotation" : [
                -0.4444165825843811,
                0.07442263513803482,
                0.30127978324890137,
                0.8403485417366028
            ],
            "translation" : [
                -3.110366719738522e-08,
                2.0555808544158936,
                2.9802322387695312e-08
            ]
        },
        {
            "children" : [
                3
            ],
            "name" : "Bone.003",
            "rotation" : [
                -0.3092961311340332,
                -0.6790343523025513,
                0.19726219773292542,
                0.6358741521835327
            ],
            "scale" : [
                1,
                0.9999997615814209,
                0.9999999403953552
            ],
            "translation" : [
                0,
                1,
                0
            ]
        },
        {
            "name" : "Bone.008",
            "rotation" : [
                -0.10539251565933228,
                0.056384507566690445,
                -0.647079586982727,
                0.7529950141906738
            ],
            "scale" : [
                1,
                0.9999999403953552,
                0.9999999403953552
            ],
            "translation" : [
                -1.0600889766010368e-07,
                0.7710810303688049,
                2.9802322387695312e-08
            ]
        },
        {
            "children" : [
                5
            ],
            "name" : "Bone.005",
            "rotation" : [
                -0.33560845255851746,
                -0.025578103959560394,
                -0.24357622861862183,
                0.9096062779426575
            ],
            "scale" : [
                0.9999999403953552,
                1,
                1
            ],
            "translation" : [
                9.070832618363056e-08,
                2.0630855560302734,
                -7.450580596923828e-09
            ]
        },
        {
            "children" : [
                6
            ],
            "name" : "Bone.004",
            "rotation" : [
                0.2126942276954651,
                -0.6288582682609558,
                -0.3233223259449005,
                0.6743597984313965
            ],
            "scale" : [
                1.0000001192092896,
                1,
                1
            ],
            "translation" : [
                0,
                1,
                0
            ]
        },
        {
            "children" : [
                1,
                4,
                7
            ],
            "name" : "Bone",
            "rotation" : [
                0,
                0,
                -0.7071067094802856,
                0.7071068286895752
            ]
        },
        {
            "name" : "Bone.011",
            "rotation" : [
                0.10649930685758591,
                -0.35820072889328003,
                0.06615210324525833,
                0.9251886606216431
            ],
            "scale" : [
                0.9999998807907104,
                0.9999998807907104,
                0.9999999403953552
            ],
            "translation" : [
                1.9848812371492386e-07,
                2.852118492126465,
                -1.4901161193847656e-08
            ]
        },
        {
            "children" : [
                9
            ],
            "name" : "Bone.009",
            "rotation" : [
                -0.6729775071144104,
                0.3160170912742615,
                0.3950764536857605,
                0.5395824313163757
            ]
        },
        {
            "name" : "Bone.012",
            "rotation" : [
                0.09631133079528809,
                0.3648315668106079,
                -0.01941015012562275,
                0.9258754253387451
            ],
            "scale" : [
                1,
                0.9999999403953552,
                1
            ],
            "translation" : [
                -2.246815711259842e-08,
                2.8453803062438965,
                -7.450580596923828e-08
            ]
        },
        {
            "children" : [
                11
            ],
            "name" : "Bone.010",
            "rotation" : [
                -0.39666205644607544,
                0.5386985540390015,
                0.6722361445426941,
                0.31711453199386597
            ],
            "scale" : [
                0.9999999403953552,
                0.9999998807907104,
                0.9999999403953552
            ]
        },
        {
            "mesh" : 0,
            "name" : "turtle",
            "skin" : 0,
            "translation" : [
                0,
                -1.0999999046325684,
                0
            ]
        },
        {
            "children" : [
                13,
                8,
                10,
                12
            ],
            "name" : "Armature",
            "translation" : [
                0,
                1.0999999046325684,
                0
            ]
        }
    ],
    "animations" : [
        {
            "channels" : [
                {
                    "sampler" : 0,
                    "target" : {
                        "node" : 3,
                        "path" : "rotation"
                    }
                },
                {
                    "sampler" : 1,
                    "target" : {
                        "node" : 6,
                        "path" : "rotation"
                    }
                },
                {
                    "sampler" : 2,
                    "target" : {
                        "node" : 2,
                        "path" : "rotation"
                    }
                },
                {
                    "sampler" : 3,
                    "target" : {
                        "node" : 5,
                        "path" : "rotation"
                    }
                },
                {
                    "sampler" : 4,
                    "target" : {
                        "node" : 0,
                        "path" : "rotation"
                    }
                }
            ],
            "name" : "SWIM",
            "samplers" : [
                {
                    "input" : 7,
                    "interpolation" : "STEP",
                    "output" : 8
                },
                {
                    "input" : 9,
                    "interpolation" : "STEP",
                    "output" : 10
                },
                {
                    "input" : 11,
                    "interpolation" : "CUBICSPLINE",
                    "output" : 12
                },
                {
                    "input" : 13,
                    "interpolation" : "CUBICSPLINE",
                    "output" : 14
                },
                {
                    "input" : 15,
                    "interpolation" : "STEP",
                    "output" : 16
                }
            ]
        }
    ],
    "materials" : [
        {
            "name" : "turSkin",
            "pbrMetallicRoughness" : {
                "baseColorTexture" : {
                    "index" : 0,
                    "texCoord" : 0
                },
                "metallicFactor" : 0,
                "roughnessFactor" : 0.5
            }
        }
    ],
    "meshes" : [
        {
            "name" : "10042 Sea Turtle V2 iterations-2 v4",
            "primitives" : [
                {
                    "attributes" : {
                        "POSITION" : 0,
                        "NORMAL" : 1,
                        "TEXCOORD_0" : 2,
                        "JOINTS_0" : 3,
                        "WEIGHTS_0" : 4
                    },
                    "indices" : 5,
                    "material" : 0
                }
            ]
        }
    ],
    "textures" : [
        {
            "source" : 0
        }
    ],
    "images" : [
        {
            "bufferView" : 6,
            "mimeType" : "image/png",
            "name" : "turtle-color.jpg"
        }
    ],
    "skins" : [
        {
            "inverseBindMatrices" : 6,
            "joints" : [
                8,
                1,
                0,
                4,
                3,
                2,
                7,
                6,
                5,
                10,
                9,
                12,
                11
            ],
            "name" : "Armature"
        }
    ],
    "accessors" : [
        {
            "bufferView" : 0,
            "componentType" : 5126,
            "count" : 4750,
            "max" : [
                4.747551918029785,
                2.2440662384033203,
                3.2496347427368164
            ],
            "min" : [
                -4.512884616851807,
                0.030058730393648148,
                -3.2496347427368164
            ],
            "type" : "VEC3"
        },
        {
            "bufferView" : 1,
            "componentType" : 5126,
            "count" : 4750,
            "type" : "VEC3"
        },
        {
            "bufferView" : 2,
            "componentType" : 5126,
            "count" : 4750,
            "type" : "VEC2"
        },
        {
            "bufferView" : 3,
            "componentType" : 5123,
            "count" : 4750,
            "type" : "VEC4"
        },
        {
            "bufferView" : 4,
            "componentType" : 5126,
            "count" : 4750,
            "type" : "VEC4"
        },
        {
            "bufferView" : 5,
            "componentType" : 5123,
            "count" : 24840,
            "type" : "SCALAR"
        },
        {
            "bufferView" : 7,
            "componentType" : 5126,
            "count" : 13,
            "type" : "MAT4"
        },
        {
            "bufferView" : 8,
            "componentType" : 5126,
            "count" : 1501,
            "max" : [
                1.6999999999999889
            ],
            "min" : [
                0.03333333333333333
            ],
            "type" : "SCALAR"
        },
        {
            "bufferView" : 9,
            "componentType" : 5126,
            "count" : 1501,
            "type" : "VEC4"
        },
        {
            "bufferView" : 10,
            "componentType" : 5126,
            "count" : 1501,
            "max" : [
                1.6999999999999889
            ],
            "min" : [
                0.03333333333333333
            ],
            "type" : "SCALAR"
        },
        {
            "bufferView" : 11,
            "componentType" : 5126,
            "count" : 1501,
            "type" : "VEC4"
        },
        {
            "bufferView" : 12,
            "componentType" : 5126,
            "count" : 3,
            "max" : [
                1
            ],
            "min" : [
                0.43333333333333335
            ],
            "type" : "SCALAR"
        },
        {
            "bufferView" : 13,
            "componentType" : 5126,
            "count" : 9,
            "type" : "VEC4"
        },
        {
            "bufferView" : 14,
            "componentType" : 5126,
            "count" : 3,
            "max" : [
                1
            ],
            "min" : [
                0.43333333333333335
            ],
            "type" : "SCALAR"
        },
        {
            "bufferView" : 15,
            "componentType" : 5126,
            "count" : 9,
            "type" : "VEC4"
        },
        {
            "bufferView" : 16,
            "componentType" : 5126,
            "count" : 1441,
            "max" : [
                1.633333333333326
            ],
            "min" : [
                0.03333333333333333
            ],
            "type" : "SCALAR"
        },
        {
            "bufferView" : 17,
            "componentType" : 5126,
            "count" : 1441,
            "type" : "VEC4"
        }
    ],
    "bufferViews" : [
        {
            "buffer" : 0,
            "byteLength" : 57000,
            "byteOffset" : 0
        },
        {
            "buffer" : 0,
            "byteLength" : 57000,
            "byteOffset" : 57000
        },
        {
            "buffer" : 0,
            "byteLength" : 38000,
            "byteOffset" : 114000
        },
        {
            "buffer" : 0,
            "byteLength" : 38000,
            "byteOffset" : 152000
        },
        {
            "buffer" : 0,
            "byteLength" : 76000,
            "byteOffset" : 190000
        },
        {
            "buffer" : 0,
            "byteLength" : 49680,
            "byteOffset" : 266000
        },
        {
            "buffer" : 0,
            "byteLength" : 1901678,
            "byteOffset" : 315680
        },
        {
            "buffer" : 0,
            "byteLength" : 832,
            "byteOffset" : 2217360
        },
        {
            "buffer" : 0,
            "byteLength" : 6004,
            "byteOffset" : 2218192
        },
        {
            "buffer" : 0,
            "byteLength" : 24016,
            "byteOffset" : 2224196
        },
        {
            "buffer" : 0,
            "byteLength" : 6004,
            "byteOffset" : 2248212
        },
        {
            "buffer" : 0,
            "byteLength" : 24016,
            "byteOffset" : 2254216
        },
        {
            "buffer" : 0,
            "byteLength" : 12,
            "byteOffset" : 2278232
        },
        {
            "buffer" : 0,
            "byteLength" : 144,
            "byteOffset" : 2278244
        },
        {
            "buffer" : 0,
            "byteLength" : 12,
            "byteOffset" : 2278388
        },
        {
            "buffer" : 0,
            "byteLength" : 144,
            "byteOffset" : 2278400
        },
        {
            "buffer" : 0,
            "byteLength" : 5764,
            "byteOffset" : 2278544
        },
        {
            "buffer" : 0,
            "byteLength" : 23056,
            "byteOffset" : 2284308
        }
    ],
    "buffers" : [
        {
            "byteLength" : 2307364,
            "uri" : "data:application/octet-stream;base64,"
        }
    ]
}
